<svg width="24" viewBox="0 0 24 25" fill="none" xmlns="http://www.w3.org/2000/svg">
  <path class="stroke" d="M21 19.2067V11.1991C21 10.2149 20.5726 9.28592 19.8418 8.68172L14.4558 4.22847C13.0113 3.03419 10.9887 3.03419 9.54424 4.22847L4.15818 8.68172C3.42742 9.28592 3 10.2149 3 11.1991V19.2067C3 20.3809 3.89543 21.3328 5 21.3328H7C8.10457 21.3328 9 20.4373 9 19.3328V16.0176C9 14.8434 9.89543 13.8915 11 13.8915H13C14.1046 13.8915 15 14.8434 15 16.0176V19.3328C15 20.4373 15.8954 21.3328 17 21.3328H19C20.1046 21.3328 21 20.3809 21 19.2067Z" stroke="current" stroke-width="2"/>
</svg>
